<svg xmlns="http://www.w3.org/2000/svg" x="0px" y="0px"
width="48" height="48"
viewBox="0 0 172 172"
style=" fill:#000000;"><g transform="translate(4.214,4.214) scale(0.951,0.951)"><g fill="none" fill-rule="nonzero" stroke="none" stroke-width="none" stroke-linecap="butt" stroke-linejoin="none" stroke-miterlimit="10" stroke-dasharray="" stroke-dashoffset="0" font-family="none" font-weight="none" font-size="none" text-anchor="none" style="mix-blend-mode: normal"><g id="IOS_copy 1" stroke="#000000" stroke-width="9" stroke-linejoin="round"><path d="M165.63097,172l-23.90268,-23.90268c-5.0644,3.7526 -11.31157,5.99986 -18.09636,5.99986c-16.82399,0 -30.46526,-13.64127 -30.46526,-30.46526c0,-16.82399 13.64127,-30.46526 30.46526,-30.46526c16.82399,0 30.46526,13.64127 30.46526,30.46526c0,6.78479 -2.24726,13.03196 -5.99986,18.09636l23.90268,23.90268z" fill="#616161"></path><path d="M146.92889,123.63192c0,12.90293 -10.39403,23.29696 -23.29696,23.29696c-12.90293,0 -23.29696,-10.39403 -23.29696,-23.29696c0,-12.90293 10.39403,-23.29696 23.29696,-23.29696c12.90293,0 23.29696,10.39403 23.29696,23.29696" fill="#bbdefb"></path><path d="M132.59229,120.04778c-1.43366,0 -2.86732,-0.35841 -3.94256,-1.43366c-2.86732,-2.86732 -7.1683,-2.86732 -10.03561,0c-2.15049,2.15049 -5.73464,2.15049 -7.52671,0c-2.15049,-2.15049 -2.15049,-5.73464 0,-7.52671c6.80988,-7.1683 18.27915,-7.1683 25.08904,0c2.15049,2.15049 2.15049,5.37622 0,7.52671c-1.07524,1.07524 -2.15049,1.43366 -3.58415,1.43366z" fill="#e3f2fd"></path><path d="M150.91144,157.27976l6.36882,-6.36882l14.71951,14.71951l-6.36882,6.36882z" fill="#37474f"></path></g><g id="Layer_1_1_ 1" stroke="#000000" stroke-width="9" stroke-linejoin="round"><g fill="#000000" font-family="-apple-system, BlinkMacSystemFont, San Francisco, HelveticaNeue-Light, Helvetica Neue Light, Helvetica Neue, Segoe UI, Fira Sans, Roboto, Oxygen, Ubuntu, Droid Sans, Arial, sans-serif" font-weight="400" font-size="16" text-anchor="start"></g><path d="M18.03133,89.52958c-0.06092,-1.16817 -0.11467,-2.3435 -0.11467,-3.52958c0,-21.87983 10.363,-41.29433 26.39842,-53.75h83.36983c16.03542,12.45567 26.39842,31.87017 26.39842,53.75c0,13.15083 -3.741,25.42017 -10.20892,35.81542c-0.00358,0.00717 -0.00717,0.01075 -0.01075,0.01792h-86.53033z" fill="#ff7043"></path><path d="M18.03133,89.52958c3.56183,-1.77375 7.85108,-3.52958 14.21867,-3.52958c28.88883,0 28.66667,28.66667 60.91667,28.66667c14.33333,0 21.5,-7.16667 32.25,-7.16667c7.36733,0 16.12858,5.289 18.447,14.33333c-5.38575,8.65733 -12.65633,16.00317 -21.242,21.5h-73.24333c-17.97042,-11.5025 -30.186,-31.175 -31.347,-53.80375z" fill="#a1887f"></path><path d="M127.68492,32.25h-83.36983c11.524,-8.95117 25.96125,-14.33333 41.68492,-14.33333c15.72367,0 30.16092,5.38217 41.68492,14.33333z" fill="#bcaaa4"></path><path d="M86,154.08333c-13.49483,0 -26.04008,-3.9775 -36.62167,-10.75h73.24333c-10.58158,6.7725 -23.12683,10.75 -36.62167,10.75z" fill="#bcaaa4"></path></g><path d="M0,172v-172h172v172z" fill="none" stroke="none" stroke-width="1" stroke-linejoin="miter"></path><g id="Layer_1_1_" stroke="none" stroke-width="1" stroke-linejoin="miter"><g fill="#000000" font-family="-apple-system, BlinkMacSystemFont, San Francisco, HelveticaNeue-Light, Helvetica Neue Light, Helvetica Neue, Segoe UI, Fira Sans, Roboto, Oxygen, Ubuntu, Droid Sans, Arial, sans-serif" font-weight="400" font-size="16" text-anchor="start"></g><path d="M57.33333,121.83333h86.53033c0.00358,-0.00717 0.00717,-0.01075 0.01075,-0.01792c6.46792,-10.39525 10.20892,-22.66458 10.20892,-35.81542c0,-21.87983 -10.363,-41.29433 -26.39842,-53.75h-83.36983c-16.03542,12.45567 -26.39842,31.87017 -26.39842,53.75c0,1.18608 0.05375,2.36142 0.11467,3.52958z" fill="#ff7043"></path><path d="M49.37833,143.33333h73.24333c8.58567,-5.49683 15.85625,-12.84267 21.242,-21.5c-2.31842,-9.04433 -11.07967,-14.33333 -18.447,-14.33333c-10.75,0 -17.91667,7.16667 -32.25,7.16667c-32.25,0 -32.02783,-28.66667 -60.91667,-28.66667c-6.36758,0 -10.65683,1.75583 -14.21867,3.52958c1.161,22.62875 13.37658,42.30125 31.347,53.80375z" fill="#a1887f"></path><path d="M86,17.91667c-15.72367,0 -30.16092,5.38217 -41.68492,14.33333h83.36983c-11.524,-8.95117 -25.96125,-14.33333 -41.68492,-14.33333z" fill="#bcaaa4"></path><path d="M122.62167,143.33333h-73.24333c10.58158,6.7725 23.12683,10.75 36.62167,10.75c13.49483,0 26.04008,-3.9775 36.62167,-10.75z" fill="#bcaaa4"></path></g><g stroke="none" stroke-width="1" stroke-linejoin="miter"><g id="IOS_copy"><path d="M172,165.63097l-23.90268,-23.90268c3.7526,-5.0644 5.99986,-11.31157 5.99986,-18.09636c0,-16.82399 -13.64127,-30.46526 -30.46526,-30.46526c-16.82399,0 -30.46526,13.64127 -30.46526,30.46526c0,16.82399 13.64127,30.46526 30.46526,30.46526c6.78479,0 13.03196,-2.24726 18.09636,-5.99986l23.90268,23.90268z" fill="#616161"></path><path d="M146.92889,123.63192c0,12.90293 -10.39403,23.29696 -23.29696,23.29696c-12.90293,0 -23.29696,-10.39403 -23.29696,-23.29696c0,-12.90293 10.39403,-23.29696 23.29696,-23.29696c12.90293,0 23.29696,10.39403 23.29696,23.29696" fill="#bbdefb"></path><path d="M132.59229,120.04778c-1.43366,0 -2.86732,-0.35841 -3.94256,-1.43366c-2.86732,-2.86732 -7.1683,-2.86732 -10.03561,0c-2.15049,2.15049 -5.73464,2.15049 -7.52671,0c-2.15049,-2.15049 -2.15049,-5.73464 0,-7.52671c6.80988,-7.1683 18.27915,-7.1683 25.08904,0c2.15049,2.15049 2.15049,5.37622 0,7.52671c-1.07524,1.07524 -2.15049,1.43366 -3.58415,1.43366z" fill="#e3f2fd"></path><rect x="60.80278" y="-1.2566" transform="rotate(45) scale(3.58411,3.58411)" width="5.808" height="2.513" fill="#37474f"></rect></g></g><path d="" fill="none" stroke="none" stroke-width="1" stroke-linejoin="miter"></path><path d="" fill="none" stroke="none" stroke-width="1" stroke-linejoin="miter"></path><path d="M86,172c-47.49649,0 -86,-38.50351 -86,-86v0c0,-47.49649 38.50351,-86 86,-86v0c47.49649,0 86,38.50351 86,86v0c0,47.49649 -38.50351,86 -86,86z" fill="none" stroke="none" stroke-width="1" stroke-linejoin="miter"></path><path d="M86,168.56c-45.59663,0 -82.56,-36.96337 -82.56,-82.56v0c0,-45.59663 36.96337,-82.56 82.56,-82.56v0c45.59663,0 82.56,36.96337 82.56,82.56v0c0,45.59663 -36.96337,82.56 -82.56,82.56z" fill="none" stroke="none" stroke-width="1" stroke-linejoin="miter"></path><path d="M0,172v-172h172v172z" fill="none" stroke="none" stroke-width="1" stroke-linejoin="miter"></path><path d="M3.44,168.56v-165.12h165.12v165.12z" fill="none" stroke="none" stroke-width="1" stroke-linejoin="miter"></path><path d="" fill="none" stroke="none" stroke-width="1" stroke-linejoin="miter"></path><path d="" fill="none" stroke="none" stroke-width="1" stroke-linejoin="miter"></path></g></g></svg>